<svg width="214" height="214" viewBox="0 0 214 214" fill="none" xmlns="http://www.w3.org/2000/svg">
<rect width="213" height="213" transform="translate(0.4375 0.4375)" fill="white"/>
<path d="M35.8304 16.4375C30.6871 16.4375 25.7544 18.4807 22.1175 22.1175C18.4807 25.7544 16.4375 30.6871 16.4375 35.8304V48.7589H42.2946C44.0091 48.7589 45.6533 48.0779 46.8656 46.8656C48.0779 45.6533 48.7589 44.0091 48.7589 42.2946V16.4375H35.8304ZM61.6875 16.4375V42.2946C61.6875 44.0091 62.3686 45.6533 63.5808 46.8656C64.7931 48.0779 66.4374 48.7589 68.1518 48.7589H145.723C147.438 48.7589 149.082 48.0779 150.294 46.8656C151.506 45.6533 152.188 44.0091 152.188 42.2946V16.4375H61.6875ZM165.116 16.4375V42.2946C165.116 44.0091 165.797 45.6533 167.009 46.8656C168.222 48.0779 169.866 48.7589 171.58 48.7589H197.438V35.8304C197.438 30.6871 195.394 25.7544 191.757 22.1175C188.121 18.4807 183.188 16.4375 178.045 16.4375H165.116ZM197.438 61.6875H119.866C118.152 61.6875 116.507 62.3686 115.295 63.5808C114.083 64.7931 113.402 66.4374 113.402 68.1518V94.0089C113.402 95.7234 114.083 97.3676 115.295 98.5799C116.507 99.7922 118.152 100.473 119.866 100.473H197.438V61.6875ZM197.438 113.402H171.58C169.866 113.402 168.222 114.083 167.009 115.295C165.797 116.507 165.116 118.152 165.116 119.866V145.723C165.116 147.438 165.797 149.082 167.009 150.294C168.222 151.506 169.866 152.188 171.58 152.188H197.438V113.402ZM197.438 165.116H119.866C118.152 165.116 116.507 165.797 115.295 167.009C114.083 168.222 113.402 169.866 113.402 171.58V197.438H178.045C183.188 197.438 188.121 195.394 191.757 191.757C195.394 188.121 197.438 183.188 197.438 178.045V165.116ZM100.473 197.438V171.58C100.473 169.866 99.7922 168.222 98.5799 167.009C97.3676 165.797 95.7234 165.116 94.0089 165.116H16.4375V178.045C16.4375 183.188 18.4807 188.121 22.1175 191.757C25.7544 195.394 30.6871 197.438 35.8304 197.438H100.473ZM16.4375 152.188H42.2946C44.0091 152.188 45.6533 151.506 46.8656 150.294C48.0779 149.082 48.7589 147.438 48.7589 145.723V119.866C48.7589 118.152 48.0779 116.507 46.8656 115.295C45.6533 114.083 44.0091 113.402 42.2946 113.402H16.4375V152.188ZM16.4375 100.473H94.0089C95.7234 100.473 97.3676 99.7922 98.5799 98.5799C99.7922 97.3676 100.473 95.7234 100.473 94.0089V68.1518C100.473 66.4374 99.7922 64.7931 98.5799 63.5808C97.3676 62.3686 95.7234 61.6875 94.0089 61.6875H16.4375V100.473ZM61.6875 119.866C61.6875 118.152 62.3686 116.507 63.5808 115.295C64.7931 114.083 66.4374 113.402 68.1518 113.402H145.723C147.438 113.402 149.082 114.083 150.294 115.295C151.506 116.507 152.188 118.152 152.188 119.866V145.723C152.188 147.438 151.506 149.082 150.294 150.294C149.082 151.506 147.438 152.188 145.723 152.188H68.1518C66.4374 152.188 64.7931 151.506 63.5808 150.294C62.3686 149.082 61.6875 147.438 61.6875 145.723V119.866Z" fill="black"/>
</svg>
